<?xml version="1.0" encoding="UTF-8"?>
<svg width="160px" height="28px" viewBox="0 0 160 28" version="1.1" xmlns="http://www.w3.org/2000/svg" xmlns:xlink="http://www.w3.org/1999/xlink">
    <!-- Generator: sketchtool 58 (101010) - https://sketch.com -->
    <title>BFDD8863-187C-4FB3-A79C-494479215AF1</title>
    <desc>Created with sketchtool.</desc>
    <defs>
        <linearGradient x1="-7.66880992%" y1="60.7166491%" x2="125.295382%" y2="32.2474961%" id="linearGradient-1">
            <stop stop-color="#3555A5" offset="0%"></stop>
            <stop stop-color="#406FB6" offset="49%"></stop>
            <stop stop-color="#459FD8" offset="100%"></stop>
        </linearGradient>
        <linearGradient x1="-15.0628951%" y1="80.3133649%" x2="141.722746%" y2="-55.992013%" id="linearGradient-2">
            <stop stop-color="#3555A5" offset="0%"></stop>
            <stop stop-color="#406FB6" offset="49%"></stop>
            <stop stop-color="#459FD8" offset="100%"></stop>
        </linearGradient>
        <linearGradient x1="44.6291867%" y1="-6.38208468%" x2="57.3585528%" y2="103.138673%" id="linearGradient-3">
            <stop stop-color="#313A96" stop-opacity="0.5" offset="0%"></stop>
            <stop stop-color="#33439B" stop-opacity="0.47" offset="8%"></stop>
            <stop stop-color="#3D64AF" stop-opacity="0.34" offset="51%"></stop>
            <stop stop-color="#406FB6" stop-opacity="0.3" offset="91%"></stop>
            <stop stop-color="#459FD8" stop-opacity="0" offset="100%"></stop>
        </linearGradient>
    </defs>
    <g id="Page-1" stroke="none" stroke-width="1" fill="none" fill-rule="evenodd">
        <g id="finlogix_mentioned_email" transform="translate(-682.000000, -303.000000)" fill-rule="nonzero">
            <g id="finlogix_chinese_logo_white_1" transform="translate(682.000000, 303.000000)">
                <polygon id="Path" fill="#212121" points="42.22464 10.5152727 45.0816 10.5152727 45.0816 22.0665455 42.22464 22.0665455"></polygon>
                <polygon id="Path" fill="#212121" points="59.904 22.0767273 59.904 4.65563636 62.76096 4.65563636 62.76096 22.0767273"></polygon>
                <path d="M76.65152,15.9421818 C76.6615683,16.7953937 76.5220979,17.6438272 76.23936,18.4494545 C75.9843142,19.1703926 75.5815839,19.830862 75.05664,20.3890909 C74.5347746,20.9343633 73.8996644,21.3599972 73.19552,21.6363636 C72.4203054,21.9384165 71.5934932,22.0879705 70.76096,22.0767273 C69.914122,22.0899663 69.0726837,21.9404397 68.28288,21.6363636 C67.5777239,21.3619117 66.9422202,20.9360142 66.42176,20.3890909 C65.8999088,19.8308238 65.5013867,19.170105 65.25184,18.4494545 C64.9729705,17.6430531 64.8361363,16.7948516 64.84736,15.9421818 C64.836029,15.0897052 64.9755398,14.2418875 65.25952,13.4374545 C65.51265,12.7161905 65.9146356,12.0555123 66.43968,11.4978182 C66.9615454,10.9525458 67.5966556,10.5269119 68.3008,10.2505455 C69.0756729,9.94729775 69.9027235,9.79770069 70.73536,9.81018182 C71.5831557,9.79538603 72.4257303,9.94496002 73.216,10.2505455 C73.9211561,10.5249974 74.5566598,10.9508949 75.07712,11.4978182 C75.5989712,12.0560853 75.9974933,12.7168041 76.24704,13.4374545 C76.5259179,14.2429751 76.6627564,15.0903425 76.65152,15.9421818 Z M73.68192,15.9421818 C73.6936074,15.3892927 73.6228663,14.8377314 73.472,14.3054545 C73.3500224,13.8724613 73.1448579,13.4670569 72.86784,13.1116364 C72.6205565,12.7993193 72.3008117,12.5512655 71.936,12.3887273 C71.5626673,12.2211435 71.1577738,12.1343777 70.74816,12.1341818 C70.3452057,12.135006 69.947122,12.221809 69.5808,12.3887273 C69.2169692,12.5517019 68.8981541,12.7997157 68.65152,13.1116364 C68.3745021,13.4670569 68.1693376,13.8724613 68.04736,14.3054545 C67.893034,14.8372151 67.8188409,15.3887861 67.8272,15.9421818 C67.8185873,16.4964288 67.8927829,17.0488761 68.04736,17.5814545 C68.169783,18.0142075 68.3777874,18.4183338 68.6592,18.7701818 C68.9107977,19.0781575 69.2294142,19.325336 69.59104,19.4930909 C69.9620701,19.6621583 70.3656267,19.7490119 70.77376,19.7476552 C71.1794351,19.7491277 71.5805146,19.662243 71.9488,19.4930909 C72.3073883,19.3250983 72.6226156,19.077832 72.8704,18.7701818 C73.1464719,18.4164223 73.3507907,18.0127 73.472,17.5814545 C73.6231175,17.048359 73.6938609,16.4959214 73.68192,15.9421818 L73.68192,15.9421818 Z" id="Shape" fill="#212121"></path>
                <polygon id="Path" fill="#212121" points="91.968 10.5254545 94.82496 10.5254545 94.82496 22.0767273 91.968 22.0767273"></polygon>
                <ellipse id="Oval" fill="#212121" cx="43.65312" cy="7.40218182" rx="1.42848" ry="1.42036364"></ellipse>
                <ellipse id="Oval" fill="#212121" cx="93.39904" cy="7.40218182" rx="1.42848" ry="1.42036364"></ellipse>
                <path d="M57.75104,13.468 C57.7241598,13.1925242 57.6692659,12.920467 57.5872,12.656 C57.4573635,12.2359458 57.2536801,11.8420972 56.9856,11.4927273 C56.7438311,11.1750807 56.4463658,10.9034504 56.10752,10.6909091 C55.7692976,10.4820367 55.399278,10.3290244 55.01184,10.2378182 C54.6044248,10.1402844 54.1867357,10.0915745 53.76768,10.0926752 C53.3356598,10.090743 52.9052693,10.1455199 52.48768,10.2556364 C52.1082028,10.3599788 51.7415753,10.5059673 51.39456,10.6909091 C51.0749975,10.8593145 50.7775058,11.0662045 50.5088,11.3069091 C50.3423239,11.4646309 50.1882713,11.6348279 50.048,11.816 L50.048,10.5 L47.19104,10.5 L47.17568,22.0665455 L50.048,22.0665455 L50.048,14.0305455 C50.4143847,13.5566388 50.8799498,13.1675429 51.41248,12.8901818 C51.9082605,12.6336754 52.45872,12.499243 53.0176,12.4981818 C53.3899422,12.4874787 53.7589503,12.5706686 54.09024,12.74 C54.3991909,12.9172514 54.6336445,13.1991657 54.75072,13.5341818 C54.8190085,13.7249359 54.86371,13.9232404 54.88384,14.1247273 C54.90688,14.3512727 54.91968,14.6185455 54.91968,14.9341818 L54.91968,22.0614545 L57.792,22.0614545 L57.792,14.4861818 C57.792,14.1018182 57.7792,13.7632727 57.75104,13.468 Z" id="Path" fill="#212121"></path>
                <polygon id="Path" fill="#212121" points="40.128 8.81236364 40.128 5.97163636 32.70144 5.97163636 29.84448 5.97163636 29.84448 8.81236364 29.84448 12.4090909 29.84448 15.2498182 29.84448 22.0665455 32.70144 22.0665455 32.70144 15.2498182 38.41536 15.2498182 38.41536 12.4090909 32.70144 12.4090909 32.70144 8.81236364"></polygon>
                <polygon id="Path" fill="#212121" points="100.33408 22.0665455 109.5168 10.5152727 106.08896 10.5152727 96.90624 22.0665455"></polygon>
                <polygon id="Path" fill="#212121" points="109.5168 22.0665455 100.33408 10.5152727 96.90624 10.5152727 106.08896 22.0665455"></polygon>
                <path d="M87.01952,22.4865455 C86.97856,23.7592727 86.66624,24.2403636 85.9648,24.7341818 C85.26336,25.228 84.26752,25.4749091 82.9824,25.4749091 C82.3635225,25.477378 81.7454401,25.4305617 81.13408,25.3349091 C80.5653624,25.2509748 80.0045422,25.1207184 79.45728,24.9454545 L79.45728,27.272 C79.6807797,27.3549211 79.9090187,27.4246187 80.1408,27.4807273 C80.41216,27.5494545 80.71168,27.6105455 81.0368,27.6614545 C81.36192,27.7123636 81.7152,27.7556364 82.0864,27.7836364 C82.4576,27.8116364 82.83648,27.8244929 83.2256,27.8244929 C83.8794052,27.8275157 84.5322031,27.7729991 85.17632,27.6614545 C85.756342,27.564071 86.3232368,27.4009473 86.86592,27.1752727 C87.359725,26.9689833 87.821011,26.6929269 88.23552,26.3556364 C88.6317307,26.0312558 88.9663882,25.6390175 89.22368,25.1974545 C89.452948,24.7906574 89.620313,24.3523192 89.72032,23.8967273 C89.8427029,23.3185303 89.9002277,22.7286227 89.89184,22.1378182 L89.89184,10.5101818 L87.04,10.5101818 L87.04,11.3501818 C86.7000314,10.9618545 86.2924481,10.6376405 85.8368,10.3930909 C85.246871,10.084909 84.5881932,9.92993096 83.92192,9.94254545 C82.5618427,9.94363166 81.2680998,10.5270063 80.3712,11.5436364 C79.8637092,12.1247612 79.4742415,12.7981351 79.22432,13.5265455 C78.91998,14.4161426 78.7727415,15.3513926 78.78912,16.2909091 C78.7668952,17.2083651 78.910841,18.1223142 79.21408,18.9890909 C79.4569943,19.6700255 79.8357728,20.2951386 80.32768,20.8269091 C80.7693533,21.2983174 81.3141776,21.662373 81.92,21.8909091 C82.503327,22.109943 83.1217449,22.2220574 83.74528,22.2218182 C84.089241,22.223284 84.432422,22.1891609 84.76928,22.12 C85.0808142,22.0580909 85.3852844,21.9651369 85.67808,21.8425455 C85.9438126,21.7336369 86.2005921,21.6042745 86.44608,21.4556364 C86.6541241,21.3227782 86.8525805,21.1756322 87.04,21.0152727 L87.0656,21.0152727 L87.01952,22.4865455 Z M87.02976,18.7625455 C86.8943172,18.9116164 86.7461361,19.0487355 86.58688,19.1723636 C86.4031993,19.3156665 86.2060154,19.4409767 85.99808,19.5465455 C85.769809,19.6622781 85.5305584,19.7552177 85.28384,19.824 C85.0152075,19.896609 84.7378958,19.9325746 84.45952,19.9309091 C84.0545696,19.9415166 83.6530877,19.8541642 83.2896,19.6763636 C82.9439663,19.5029379 82.6487299,19.2444309 82.432,18.9254545 C82.1904018,18.5660553 82.0168855,18.1657846 81.92,17.7443636 C81.8012515,17.2284991 81.7445344,16.7004379 81.75104,16.1712727 C81.7456437,15.7023323 81.7885339,15.234074 81.87904,14.7738182 C81.9487269,14.4167022 82.0604281,14.0689787 82.21184,13.7378182 C82.3307916,13.474689 82.4915684,13.2323157 82.688,13.02 C82.856326,12.842094 83.0504753,12.6902311 83.264,12.5694545 C83.4516246,12.4632049 83.6532515,12.3835264 83.86304,12.3327273 C84.0478277,12.2905593 84.2366572,12.2683699 84.42624,12.2665455 C84.9307597,12.2741547 85.426011,12.4025028 85.87008,12.6407273 C86.3036567,12.8679179 86.6901669,13.1745056 87.00928,13.5443636 L87.02976,18.7625455 Z" id="Shape" fill="#212121"></path>
                <path d="M131.46368,15.1021818 L131.46368,22.3516364 C131.496788,22.7875394 131.336912,23.2161008 131.02592,23.5250909 C130.73408,23.7796364 130.27072,23.9145455 129.64096,23.9145455 L128.83712,23.9145455 L128.54528,22.708 L129.56928,22.708 C130.05568,22.708 130.29888,22.4941818 130.29888,22.0665455 L130.29888,16.3112727 L124.8256,16.3112727 L124.8256,24.0570909 L123.58656,24.0570909 L123.58656,15.1021818 L131.46368,15.1021818 Z M123.80672,8.28036364 L131.17184,8.28036364 L131.17184,9.48945455 L123.80672,9.48945455 L123.80672,8.28036364 Z M124.24448,10.556 L130.51392,10.556 L130.51392,14.1196364 L124.24448,14.1196364 L124.24448,10.556 Z M125.26848,18.8694545 L127.52896,18.8694545 C128.009381,18.1721798 128.378939,17.4054968 128.62464,16.5963636 L129.64864,16.8789091 C129.411028,17.5769099 129.092285,18.2449458 128.69888,18.8694545 L129.86624,18.8694545 L129.86624,19.936 L128.1152,19.936 L128.1152,23.2756364 L126.9504,23.2756364 L126.9504,19.936 L125.27104,19.936 L125.26848,18.8694545 Z M126.36416,16.5963636 C126.710856,17.1341155 127.001633,17.7055422 127.232,18.3018182 L126.35648,18.7269091 C126.133035,18.1020899 125.839334,17.5043623 125.48096,16.9450909 L126.36416,16.5963636 Z M125.56032,13.0327273 L129.35424,13.0327273 L129.35424,11.5487273 L125.5552,11.5487273 L125.56032,13.0327273 Z M132.63616,11.0421818 L135.40608,11.0421818 L135.40608,7.71272727 L136.79104,7.71272727 L136.79104,11.0523636 L139.56352,11.0523636 L139.56352,18.3018182 L136.78592,18.3018182 L136.78592,21.784 L138.0992,21.4989091 L137.51552,19.6509091 L138.68288,19.1418182 C139.244215,20.6011322 139.706898,22.0960956 140.06784,23.6167273 L138.752,24.1996364 L138.46016,22.708 C136.66304,23.1339394 134.6944,23.5123636 132.55424,23.8432727 L132.2624,22.4941818 C133.380267,22.3516364 134.4256,22.1819394 135.3984,21.9850909 L135.3984,18.3018182 L132.63104,18.3018182 L132.63616,11.0421818 Z M135.40608,17.0112727 L135.40608,12.3327273 L133.87008,12.3327273 L133.87008,17.0214545 L135.40608,17.0112727 Z M138.25024,17.0112727 L138.25024,12.3327273 L136.79104,12.3327273 L136.79104,17.0214545 L138.25024,17.0112727 Z" id="Shape" fill="#212121"></path>
                <path d="M158.11328,8.28036364 L150.81984,8.28036364 L150.81984,12.4014545 L158.11328,12.4014545 L158.11328,8.28036364 Z M156.72832,11.2661818 L152.20736,11.2661818 L152.20736,9.41818182 L156.72832,9.41818182 L156.72832,11.2661818 Z" id="Shape" fill="#212121"></path>
                <path d="M149.504,18.3730909 L147.82464,18.7981818 L147.82464,16.5963636 L149.64992,16.5963636 L149.64992,15.3872727 L147.82464,15.3872727 L147.82464,13.1141818 L146.51392,13.1141818 L146.51392,15.3872727 L144.46592,15.3872727 C145.207701,14.1104801 145.79544,12.7511509 146.21696,11.3374545 L149.57056,11.3374545 L149.57056,9.98581818 L146.66496,9.98581818 C146.869725,9.33229891 147.040616,8.6687592 147.17696,7.99781818 L145.86368,7.71272727 C145.66912,8.51709091 145.450667,9.27478788 145.20832,9.98581818 L142.8736,9.98581818 L142.8736,11.3374545 L144.77056,11.3374545 C144.283838,12.7502114 143.64797,14.1077256 142.8736,15.3872727 L143.16544,16.5963636 L146.5216,16.5963636 L146.5216,19.012 C145.403733,19.2003636 144.187733,19.3895758 142.8736,19.5796364 L143.16544,21.0025455 L146.5216,20.4323636 L146.5216,24.0570909 L147.83232,24.0570909 L147.83232,20.1472727 C148.473847,20.0135192 149.107192,19.8435471 149.72928,19.6381818 L149.504,18.3730909 Z" id="Path" fill="#212121"></path>
                <path d="M159.64416,20.5749091 L157.96736,20.7174545 L157.96736,14.5345455 L159.28064,14.5345455 L159.28064,13.3254545 L149.3632,13.3254545 L149.3632,14.5345455 L150.74816,14.5345455 L150.74816,21.2850909 L149.14304,21.4276364 L149.3632,22.7003636 C151.93856,22.510303 154.368853,22.2964848 156.65408,22.0589091 L156.65408,24.4058182 L157.96736,24.4058182 L157.96736,21.924 C158.600533,21.8781818 159.232853,21.8077576 159.86432,21.7127273 L159.64416,20.5749091 Z M156.65408,17.7316364 L156.65408,20.8727273 C155.24608,21.0152727 153.739093,21.1332121 152.13312,21.2265455 L152.13312,19.6509091 L156.00128,19.6509091 L156.00128,18.4418182 L152.13312,18.4418182 L152.13312,17.0927273 L156.65408,17.0927273 L156.65408,17.7316364 Z M156.65408,15.9498182 L152.13312,15.9498182 L152.13312,14.5345455 L156.65408,14.5345455 L156.65408,15.9498182 Z" id="Shape" fill="#212121"></path>
                <rect id="Rectangle" fill="#212121" x="115.88352" y="7.78654545" width="1" height="16.3723636"></rect>
                <path d="M3.02592,5.6 L17.61792,5.6 C19.0531123,5.44473407 20.13775,4.23543496 20.1293293,2.8 L20.1293293,0 L2.8288,0 C1.2664969,0 0,1.25930089 0,2.81272727 L0,7.40727273 C0.596477984,6.29629177 1.7593467,5.60175228 3.02592,5.6 Z" id="Path" fill="url(#linearGradient-1)"></path>
                <path d="M16.9344,8.65454545 L2.8288,8.65454545 C1.27206063,8.65592222 0.00844462827,9.90667336 0,11.4545455 L0,23.6294545 C0,23.7058182 0,23.7770909 0,23.8509091 C0.111989992,25.3628986 1.40901989,26.5145814 2.93258434,26.4548637 C4.45614878,26.395146 5.65797802,25.1455178 5.64992,23.6294545 L5.64992,14.2723636 L14.09792,14.2723636 C14.8492871,14.2723639 15.5698428,13.9754063 16.1008995,13.4468896 C16.6319561,12.9183729 16.9299594,12.2016431 16.92928,11.4545455 C16.92928,9.90436364 16.9344,8.65454545 16.9344,8.65454545 Z" id="Path" fill="url(#linearGradient-2)"></path>
                <path d="M2.8288,26.4447342 C4.39251695,26.4447342 5.66016,25.1842867 5.66016,23.6294545 L5.66016,14.28 L4.864,14.28 C2.18267776,14.28 0.00705611115,16.4375581 1.77635684e-15,19.1036364 L1.77635684e-15,23.8509091 C0.116395029,25.3176765 1.34906974,26.4479558 2.8288,26.4447342 L2.8288,26.4447342 Z" id="Path" fill="url(#linearGradient-3)"></path>
            </g>
        </g>
    </g>
</svg>